<svg width="104" height="126" viewBox="0 0 104 126" fill="none" xmlns="http://www.w3.org/2000/svg">
<g filter="url(#filter0_d_1263_16748)">
<ellipse cx="52" cy="104" rx="48" ry="14" fill="white"/>
</g>
<path d="M75.9681 73.2014C75.9681 73.2014 82.9325 80.5842 79.2455 92.499C76.7108 93.1838 74.0447 93.5438 71.3251 93.4636C74.3294 83.5987 69.7137 76.4548 69.823 76.6458C71.555 75.4656 73.6872 74.2821 75.9681 73.2014Z" fill="#E2E2E2"/>
<path d="M92.7647 68.7853C95.9055 72.0888 96.8614 74.4182 97.3231 79.077C96.1814 81.35 94.2189 83.7473 91.6722 85.9197C91.9453 71.6777 84.5712 69.8834 84.5712 69.8834C84.5712 69.8834 87.5736 68.9223 92.7647 68.7853Z" fill="#E2E2E2"/>
<path d="M84.5712 69.8834C84.5712 69.8834 91.9453 71.6777 91.6722 85.9197C88.3493 88.7542 84.0319 91.2059 79.2455 92.499C82.9325 80.5842 75.9681 73.2014 75.9681 73.2014C78.7666 71.8754 81.789 70.7041 84.5712 69.8834Z" fill="#1CA1BF"/>
<path d="M98.2269 73.459C98.7188 75.0557 98.3586 77.0152 97.3231 79.077C96.8614 74.4182 95.9055 72.0888 92.7647 68.7853C95.5766 69.1862 97.3882 70.7363 98.2269 73.459Z" fill="#292929"/>
<path fill-rule="evenodd" clip-rule="evenodd" d="M80.2756 79.473C78.6845 74.2859 73.4508 68.5799 71.273 68.5797C70.8217 68.5796 70.2277 68.5015 69.6073 68.4199C67.6295 68.1597 65.3828 67.8641 66.6301 69.9499C67.9453 72.1492 68.895 75.0664 69.8116 77.8816C70.4098 79.719 70.9939 81.513 71.6562 83.0356C71.6562 83.0356 75.1433 79.61 80.2756 79.473Z" fill="#0788A5"/>
<path d="M80.2756 79.473C81.1788 82.4178 80.908 85.1953 78.2375 86.6667C74.9835 88.4594 73.127 86.4168 71.6562 83.0356C71.6562 83.0356 75.1433 79.61 80.2756 79.473Z" fill="#292929"/>
<path fill-rule="evenodd" clip-rule="evenodd" d="M23.0389 79.473C24.6299 74.2859 29.8637 68.5799 32.0414 68.5797C32.4927 68.5796 33.0867 68.5015 33.7072 68.4199C35.6849 68.1597 37.9316 67.8641 36.6844 69.9499C35.3692 72.1492 34.4194 75.0664 33.5029 77.8816C32.9047 79.719 32.3206 81.513 31.6583 83.0356C31.6583 83.0356 28.1711 79.61 23.0389 79.473Z" fill="#0788A5"/>
<path d="M23.0389 79.473C22.1357 82.4178 22.4065 85.1953 25.077 86.6667C28.3309 88.4594 30.1875 86.4168 31.6583 83.0356C31.6583 83.0356 28.1711 79.61 23.0389 79.473Z" fill="#292929"/>
<path d="M52.2063 58.0975C53.6158 58.0975 54.9341 58.2332 56.1669 58.4881C56.1669 58.4881 65.999 75.0902 66.9549 84.6818C67.6588 91.7442 59.2796 94.7475 52.2063 94.6844C45.133 94.6213 36.9229 91.5208 37.7316 84.6818C38.6875 76.5974 48.9293 58.3777 48.9293 58.3777C49.9627 58.1943 51.054 58.0976 52.2063 58.0975Z" fill="#E2E2E2"/>
<path d="M45.5516 100.42C44.4177 102.218 42.3384 104 38.5506 104C35.95 104 34.2128 102.538 33.0559 100.42C39.2315 98.6562 45.5516 100.42 45.5516 100.42Z" fill="#292929"/>
<path fill-rule="evenodd" clip-rule="evenodd" d="M73.2367 93.4515C72.9347 96.2409 72.3354 98.6267 71.3131 100.42C66.3375 99.2115 61.4054 100.045 59.6779 100.337C59.2758 100.405 59.0473 100.443 59.0323 100.42C57.8803 98.5877 57.5324 96.7379 57.5324 96.7379C53.7088 97.2878 46.8809 96.7379 46.8809 96.7379C46.8809 96.7379 46.707 98.5877 45.5516 100.42C45.5516 100.42 39.2315 98.6562 33.0559 100.42C32.0586 98.5944 31.4926 96.2813 31.1765 93.9974C30.5318 89.3398 31.4692 61.4773 48.9293 58.3777C48.9293 58.3777 38.6875 76.5974 37.7316 84.6818C36.9229 91.5208 45.133 94.6213 52.2063 94.6844C59.2796 94.7475 67.6588 91.7442 66.9549 84.6818C65.999 75.0902 56.1669 58.4881 56.1669 58.4881C66.6099 60.6476 70.9114 71.361 72.5187 80.5711C73.4973 86.1784 73.4773 91.2284 73.2367 93.4515Z" fill="#1CA1BF"/>
<path d="M65.1793 104C62.0682 104 60.163 102.218 59.0323 100.42C59.0473 100.443 59.2758 100.405 59.6779 100.337C61.4054 100.045 66.3375 99.2115 71.3131 100.42C70.0244 102.681 68.0637 104 65.1793 104Z" fill="#292929"/>
<path fill-rule="evenodd" clip-rule="evenodd" d="M51.9317 72.3615C77.0583 72.3615 97.8151 53.8679 97.8151 53.8679L94.8108 51.9496L100 49.3461C100 49.3461 93.4452 38.5213 85.798 26.7374C84.633 24.9423 83.2053 23.0318 81.5555 21.1198C78.7943 17.9196 75.4109 14.715 71.596 12.0394C66.0344 8.13859 58.8731 5.36307 52.0683 5.36305C45.2635 5.36307 37.9656 8.16295 32.404 12.0637C28.5891 14.7394 25.2057 17.9439 22.4445 21.1441C20.7947 23.0562 19.367 24.9666 18.202 26.7618C10.5548 38.5457 4 49.3705 4 49.3705L9.18919 51.9739L6.18492 53.8922C6.18492 53.8922 26.8051 72.3615 51.9317 72.3615ZM71.0498 55.2392C79.3126 57.8184 89.3485 52.2247 91.8065 49.4843C91.8065 49.4843 85.3883 45.9217 81.0185 38.7965C78.5605 34.7886 75.6927 30.7122 67.4993 30.7122C59.3058 30.7122 56.5747 43.4187 57.394 43.7293C63.5391 46.0587 63.9488 53.0227 71.0498 55.2392ZM32.9502 55.2636C24.6874 57.8428 14.6515 52.2491 12.1935 49.5086C12.1935 49.5086 18.6117 45.946 22.9815 38.8209C25.4395 34.813 28.3073 30.7366 36.5007 30.7366C44.6942 30.7366 47.4253 43.4431 46.606 43.7537C40.4609 46.0831 40.0512 53.047 32.9502 55.2636Z" fill="#1CA1BF"/>
<path d="M21.3428 0.317757C12.2574 3.19505 13.559 20.0477 18.202 26.7618C19.367 24.9666 20.7947 23.0562 22.4445 21.1441C22.4445 21.1441 16.973 10.4572 22.4445 6.62061C25.9418 4.16824 32.404 12.0637 32.404 12.0637C34.2676 10.7566 36.3261 9.57316 38.4958 8.57721C35.628 4.24851 26.532 -1.32563 21.3428 0.317757Z" fill="#E2E2E2"/>
<path d="M85.798 26.7374C90.441 20.0233 91.7426 3.1707 82.6572 0.293403C77.468 -1.34999 68.4552 4.25259 65.5875 8.58129C67.7193 9.56904 69.7462 10.7419 71.596 12.0394C71.596 12.0394 78.0582 4.14389 81.5555 6.59626C87.027 10.4329 81.5555 21.1198 81.5555 21.1198C83.2053 23.0318 84.633 24.9423 85.798 26.7374Z" fill="#E2E2E2"/>
<path d="M32.404 12.0637C32.404 12.0637 25.9418 4.16824 22.4445 6.62061C16.973 10.4572 22.4445 21.1441 22.4445 21.1441C25.2057 17.9439 28.5891 14.7394 32.404 12.0637Z" fill="#292929"/>
<path d="M81.5555 6.59626C78.0582 4.14389 71.596 12.0394 71.596 12.0394C75.4109 14.715 78.7943 17.9196 81.5555 21.1198C81.5555 21.1198 87.027 10.4329 81.5555 6.59626Z" fill="#292929"/>
<path d="M12.1935 49.5086C14.6515 52.2491 24.6874 57.8428 32.9502 55.2636C40.0512 53.047 40.4609 46.0831 46.606 43.7537C47.4253 43.4431 44.6942 30.7366 36.5007 30.7366C28.3073 30.7366 25.4395 34.813 22.9815 38.8209C18.6117 45.946 12.1935 49.5086 12.1935 49.5086Z" fill="#292929"/>
<path d="M91.8065 49.4843C89.3485 52.2247 79.3126 57.8184 71.0498 55.2392C63.9488 53.0227 63.5391 46.0587 57.394 43.7293C56.5747 43.4187 59.3058 30.7122 67.4993 30.7122C75.6927 30.7122 78.5605 34.7886 81.0185 38.7965C85.3883 45.9217 91.8065 49.4843 91.8065 49.4843Z" fill="#292929"/>
<ellipse cx="52.0681" cy="49.597" rx="6.82788" ry="4.38472" fill="#292929"/>
<path d="M44.5954 54.5298C44.5953 54.0565 44.2116 53.6728 43.7383 53.6728C43.2649 53.6728 42.8812 54.0565 42.8812 54.5298L44.5954 54.5298ZM51.2112 53.2966C51.2112 55.8966 49.5076 57.1723 47.8261 57.3245C46.9682 57.4021 46.152 57.1821 45.5676 56.7255C45.0041 56.2853 44.5954 55.5802 44.5954 54.5298L42.8812 54.5298C42.8812 56.0829 43.5137 57.2961 44.5122 58.0762C45.4897 58.84 46.756 59.1424 47.9805 59.0316C50.4641 58.807 52.9254 56.8627 52.9254 53.2966H51.2112Z" fill="#292929"/>
<path d="M59.5414 54.3927C59.5414 53.9194 59.9251 53.5357 60.3985 53.5357C60.8718 53.5357 61.2555 53.9194 61.2555 54.3928L59.5414 54.3927ZM52.9255 53.1595C52.9255 55.7595 54.6292 57.0353 56.3106 57.1874C57.1686 57.265 57.9848 57.045 58.5691 56.5884C59.1326 56.1482 59.5413 55.4431 59.5414 54.3927L61.2555 54.3928C61.2555 55.9458 60.623 57.159 59.6245 57.9392C58.647 58.7029 57.3807 59.0053 56.1562 58.8946C53.6726 58.6699 51.2114 56.7256 51.2114 53.1595H52.9255Z" fill="#292929"/>
<rect x="63.0107" y="35.9089" width="8.72727" height="10.4" rx="4.07273" fill="#E2E2E2"/>
<rect width="8.72727" height="10.4" rx="4.07273" transform="matrix(-1 0 0 1 40.5977 35.8854)" fill="#E2E2E2"/>
<rect x="64.5088" y="37.0996" width="5.23636" height="7.51111" rx="2.61818" fill="black"/>
<rect width="5.23636" height="7.51111" rx="2.61818" transform="matrix(-1 0 0 1 38.9092 37.076)" fill="black"/>
<rect x="63.3457" y="33.8" width="10.4727" height="2.88889" rx="1.44444" fill="black"/>
<rect width="10.4727" height="2.88889" rx="1.44444" transform="matrix(-1 0 0 1 40.3994 33.7024)" fill="black"/>
<defs>
<filter id="filter0_d_1263_16748" x="0" y="90" width="104" height="36" filterUnits="userSpaceOnUse" color-interpolation-filters="sRGB">
<feFlood flood-opacity="0" result="BackgroundImageFix"/>
<feColorMatrix in="SourceAlpha" type="matrix" values="0 0 0 0 0 0 0 0 0 0 0 0 0 0 0 0 0 0 127 0" result="hardAlpha"/>
<feOffset dy="4"/>
<feGaussianBlur stdDeviation="2"/>
<feComposite in2="hardAlpha" operator="out"/>
<feColorMatrix type="matrix" values="0 0 0 0 0 0 0 0 0 0 0 0 0 0 0 0 0 0 0.15 0"/>
<feBlend mode="normal" in2="BackgroundImageFix" result="effect1_dropShadow_1263_16748"/>
<feBlend mode="normal" in="SourceGraphic" in2="effect1_dropShadow_1263_16748" result="shape"/>
</filter>
</defs>
</svg>
