<svg width="20" height="20" viewBox="0 0 20 20" fill="none" xmlns="http://www.w3.org/2000/svg">
<path d="M18.6582 7.59805C18.3557 7.28266 18.0438 6.95695 17.9415 6.71031C17.8504 6.49031 17.8435 6.03742 17.8375 5.63867C17.8246 4.7793 17.8083 3.71023 17.0486 2.95141C16.2889 2.19258 15.2207 2.17797 14.3613 2.1625C13.9626 2.15648 13.5097 2.14961 13.2897 2.05852C13.043 1.95625 12.7173 1.6443 12.402 1.3418C11.7935 0.758281 11.0355 0.03125 10 0.03125C8.96445 0.03125 8.20648 0.758281 7.59805 1.3418C7.28266 1.6443 6.95695 1.95625 6.71031 2.05852C6.49031 2.14961 6.03742 2.15648 5.63867 2.1625C4.7793 2.17969 3.71023 2.19172 2.95312 2.95312C2.19602 3.71453 2.17969 4.7793 2.1625 5.63867C2.15648 6.03742 2.14961 6.49031 2.05852 6.71031C1.95625 6.95695 1.6443 7.28266 1.3418 7.59805C0.758281 8.20648 0.03125 8.96875 0.03125 10C0.03125 11.0312 0.758281 11.7935 1.3418 12.4062C1.6443 12.7216 1.95625 13.0473 2.05852 13.294C2.14961 13.514 2.15648 13.9669 2.1625 14.3656C2.17539 15.225 2.19172 16.2941 2.95141 17.0529C3.71109 17.8117 4.7793 17.8263 5.63867 17.8418C6.03742 17.8478 6.49031 17.8547 6.71031 17.9458C6.95695 18.048 7.28266 18.36 7.59805 18.6625C8.20648 19.2417 8.96875 19.9688 10 19.9688C11.0312 19.9688 11.7935 19.2417 12.402 18.6582C12.7173 18.3557 13.043 18.0438 13.2897 17.9415C13.5097 17.8504 13.9626 17.8435 14.3613 17.8375C15.2207 17.8246 16.2898 17.8083 17.0486 17.0486C17.8074 16.2889 17.822 15.2207 17.8375 14.3613C17.8435 13.9626 17.8504 13.5097 17.9415 13.2897C18.0438 13.043 18.3557 12.7173 18.6582 12.402C19.2417 11.7935 19.9688 11.0355 19.9688 10C19.9688 8.96445 19.2417 8.20648 18.6582 7.59805ZM17.1698 10.9745C16.7555 11.4042 16.2863 11.8958 16.0363 12.5008C15.7939 13.0852 15.7845 13.7177 15.7784 14.3304C15.7716 14.791 15.7621 15.4227 15.5937 15.5902C15.4252 15.7578 14.7945 15.7681 14.3338 15.775C13.7211 15.7845 13.0886 15.7939 12.5042 16.0328C11.9027 16.2829 11.4102 16.7521 10.978 17.1663C10.6686 17.4628 10.2063 17.9062 10 17.9062C9.79375 17.9062 9.33141 17.4628 9.02547 17.1698C8.59578 16.7555 8.10422 16.2863 7.49922 16.0363C6.91484 15.7939 6.28234 15.7845 5.66961 15.7784C5.20898 15.7716 4.57734 15.7621 4.40977 15.5937C4.24219 15.4252 4.23187 14.7945 4.225 14.3338C4.21555 13.7211 4.20609 13.0886 3.96719 12.5042C3.71711 11.9027 3.24789 11.4102 2.83367 10.978C2.53719 10.6686 2.09375 10.2063 2.09375 10C2.09375 9.79375 2.53719 9.33141 2.83023 9.02547C3.24445 8.59578 3.71367 8.10422 3.96375 7.49922C4.20609 6.91484 4.21555 6.28234 4.22156 5.66961C4.23187 5.20898 4.24219 4.57734 4.41406 4.41406C4.58594 4.25078 5.21328 4.23617 5.67391 4.2293C6.28664 4.21984 6.91914 4.21039 7.50352 3.97148C8.10508 3.72141 8.5975 3.25219 9.02977 2.83797C9.33141 2.53719 9.79375 2.09375 10 2.09375C10.2063 2.09375 10.6686 2.53719 10.9745 2.83023C11.4042 3.24445 11.8958 3.71367 12.5008 3.96375C13.0852 4.20609 13.7177 4.21555 14.3304 4.22156C14.791 4.22844 15.4227 4.23789 15.5902 4.40633C15.7578 4.57477 15.7681 5.20555 15.775 5.66617C15.7845 6.27891 15.7939 6.91141 16.0328 7.49578C16.2829 8.09734 16.7521 8.58977 17.1663 9.02203C17.4594 9.32797 17.9028 9.79031 17.9028 9.99656C17.9028 10.2028 17.4628 10.6686 17.1698 10.9745ZM14.1671 7.20789C14.2632 7.3037 14.3395 7.41754 14.3916 7.54289C14.4436 7.66824 14.4704 7.80263 14.4704 7.93836C14.4704 8.07409 14.4436 8.20848 14.3916 8.33383C14.3395 8.45918 14.2632 8.57302 14.1671 8.66883L9.35461 13.4813C9.2588 13.5775 9.14496 13.6537 9.01961 13.7058C8.89426 13.7578 8.75987 13.7846 8.62414 13.7846C8.48841 13.7846 8.35402 13.7578 8.22867 13.7058C8.10332 13.6537 7.98948 13.5775 7.89367 13.4813L5.83117 11.4188C5.73525 11.3229 5.65915 11.209 5.60724 11.0837C5.55532 10.9584 5.5286 10.824 5.5286 10.6884C5.5286 10.5527 5.55532 10.4184 5.60724 10.293C5.65915 10.1677 5.73525 10.0538 5.83117 9.95789C5.9271 9.86196 6.04098 9.78587 6.16631 9.73396C6.29165 9.68204 6.42598 9.65532 6.56164 9.65532C6.6973 9.65532 6.83163 9.68204 6.95697 9.73396C7.0823 9.78587 7.19618 9.86196 7.29211 9.95789L8.625 11.2891L12.7079 7.20531C12.8038 7.1096 12.9177 7.03374 13.043 6.98206C13.1683 6.93038 13.3025 6.90391 13.438 6.90415C13.5736 6.90439 13.7077 6.93134 13.8328 6.98346C13.9579 7.03557 14.0715 7.11184 14.1671 7.20789Z" fill="#FF9600"/>
</svg>
