<svg width="94" height="52" viewBox="0 0 94 52" fill="none" xmlns="http://www.w3.org/2000/svg">
<rect x="22.1816" width="49" height="52" fill="#E5E5E5"/>
<rect x="31.1816" width="9" height="52" fill="#DCDCDC"/>
<rect x="54.1816" width="9" height="52" fill="#DCDCDC"/>
<path fill-rule="evenodd" clip-rule="evenodd" d="M16.9713 14.5757C15.324 17.1567 12.4731 18.8627 9.23217 18.8627C4.13339 18.8627 0 14.6401 0 9.43135C0 4.22256 4.13339 0 9.23217 0C9.57155 0 9.90665 0.0187072 10.2365 0.0551674C10.4588 0.0188719 10.6869 0 10.9194 0H83.082C83.3143 0 83.5421 0.0188289 83.7641 0.0550434C84.0936 0.0186643 84.4283 0 84.7673 0C89.8661 0 93.9995 4.22256 93.9995 9.43135C93.9995 14.6401 89.8661 18.8627 84.7673 18.8627C81.5264 18.8627 78.6755 17.1567 77.0282 14.5757H16.9713Z" fill="#EAEAEA"/>
</svg>
