<svg width="18" height="21" viewBox="0 0 18 21" fill="none" xmlns="http://www.w3.org/2000/svg">
<path d="M17.1084 8.78623L3.60094 0.52404C3.31767 0.351351 2.99365 0.256913 2.66196 0.250365C2.33026 0.243817 2.00277 0.325394 1.71291 0.486769C1.42304 0.648144 1.18118 0.883539 1.01202 1.16893C0.842852 1.45432 0.752437 1.77948 0.75 2.11123V18.6356C0.752437 18.9674 0.842852 19.2925 1.01202 19.5779C1.18118 19.8633 1.42304 20.0987 1.71291 20.2601C2.00277 20.4214 2.33026 20.503 2.66196 20.4965C2.99365 20.4899 3.31767 20.3955 3.60094 20.2228L17.1084 11.9606C17.3808 11.7948 17.6059 11.5617 17.7621 11.2837C17.9184 11.0058 18.0004 10.6923 18.0004 10.3734C18.0004 10.0546 17.9184 9.74106 17.7621 9.46309C17.6059 9.18512 17.3808 8.95202 17.1084 8.78623ZM3 17.9531V2.79373L15.39 10.3734L3 17.9531Z" fill="#F5F5F5"/>
<path d="M3 17.9531V2.79373L15.39 10.3734L3 17.9531Z" fill="#F5F5F5"/>
</svg>
