<svg width="112" height="88" viewBox="0 0 112 88" fill="none" xmlns="http://www.w3.org/2000/svg">
<rect x="27" width="58" height="88" fill="#E5E5E5"/>
<rect x="37" width="11" height="88" fill="#DCDCDC"/>
<rect x="64" width="11" height="88" fill="#DCDCDC"/>
<path fill-rule="evenodd" clip-rule="evenodd" d="M20.2211 17C18.2584 20.0102 14.8616 22 11 22C4.92487 22 0 17.0751 0 11C0 4.92487 4.92487 0 11 0C11.4042 0 11.8032 0.0217976 12.1961 0.0642812C12.4578 0.0219836 12.7263 0 13 0H99C99.2737 0 99.5422 0.0219837 99.8039 0.0642815C100.197 0.0217975 100.596 0 101 0C107.075 0 112 4.92487 112 11C112 17.0751 107.075 22 101 22C97.1384 22 93.7416 20.0102 91.7789 17H20.2211Z" fill="#EAEAEA"/>
</svg>
