<svg width="26" height="26" viewBox="0 0 26 26" fill="none" xmlns="http://www.w3.org/2000/svg">
<path d="M23.4462 11.0957L17.1819 8.81766L14.9038 2.55328C14.7617 2.16233 14.5028 1.82459 14.1621 1.58592C13.8214 1.34725 13.4155 1.21923 12.9995 1.21923C12.5836 1.21923 12.1777 1.34725 11.837 1.58592C11.4963 1.82459 11.2373 2.16233 11.0952 2.55328L8.81718 8.81766L2.5528 11.0957C2.16186 11.2378 1.82411 11.4968 1.58545 11.8375C1.34678 12.1781 1.21875 12.584 1.21875 13C1.21875 13.416 1.34678 13.8219 1.58545 14.1625C1.82411 14.5032 2.16186 14.7622 2.5528 14.9043L8.81718 17.1823L11.0952 23.4467C11.2373 23.8377 11.4963 24.1754 11.837 24.4141C12.1777 24.6527 12.5836 24.7808 12.9995 24.7808C13.4155 24.7808 13.8214 24.6527 14.1621 24.4141C14.5028 24.1754 14.7617 23.8377 14.9038 23.4467L17.1819 17.1823L23.4462 14.9043C23.8372 14.7622 24.1749 14.5032 24.4136 14.1625C24.6523 13.8219 24.7803 13.416 24.7803 13C24.7803 12.584 24.6523 12.1781 24.4136 11.8375C24.1749 11.4968 23.8372 11.2378 23.4462 11.0957ZM16.1693 14.9551C15.8907 15.0561 15.6377 15.217 15.4281 15.4266C15.2186 15.6361 15.0576 15.8891 14.9566 16.1677L12.9995 21.5505L11.0424 16.1677C10.9414 15.8891 10.7805 15.6361 10.5709 15.4266C10.3614 15.217 10.1084 15.0561 9.82976 14.9551L4.44695 13L9.82976 11.0429C10.1084 10.9419 10.3614 10.781 10.5709 10.5714C10.7805 10.3619 10.9414 10.1088 11.0424 9.83023L12.9995 4.44742L14.9566 9.83023C15.0576 10.1088 15.2186 10.3619 15.4281 10.5714C15.6377 10.781 15.8907 10.9419 16.1693 11.0429L21.5521 13L16.1693 14.9551Z" fill="#FF9600"/>
</svg>
