<svg width="164" height="248" viewBox="0 0 164 248" fill="none" xmlns="http://www.w3.org/2000/svg">
<g filter="url(#filter0_d_1624_8655)">
<path d="M82 240C125.078 240 160 233.732 160 226C160 218.268 125.078 212 82 212C38.9218 212 4 218.268 4 226C4 233.732 38.9218 240 82 240Z" fill="white"/>
</g>
<path d="M114.208 142.54C114.208 142.54 123.518 152.479 118.589 168.518C115.2 169.44 111.636 169.924 108.001 169.816C112.017 156.537 105.847 146.92 105.993 147.177C108.308 145.588 111.158 143.995 114.208 142.54Z" fill="#E2E2E2"/>
<path d="M136.661 136.595C140.86 141.043 142.138 144.178 142.755 150.45C141.229 153.509 138.605 156.737 135.201 159.661C135.566 140.489 125.708 138.074 125.708 138.074C125.708 138.074 129.722 136.78 136.661 136.595Z" fill="#E2E2E2"/>
<path d="M125.708 138.074C125.708 138.074 135.566 140.489 135.201 159.661C130.759 163.477 124.987 166.777 118.589 168.518C123.518 152.479 114.208 142.54 114.208 142.54C117.949 140.755 121.989 139.178 125.708 138.074Z" fill="#1CA1BF"/>
<path d="M143.963 142.887C144.621 145.036 144.139 147.674 142.755 150.45C142.138 144.178 140.86 141.043 136.661 136.595C140.42 137.135 142.842 139.222 143.963 142.887Z" fill="#292929"/>
<path fill-rule="evenodd" clip-rule="evenodd" d="M120.001 151.224C117.866 144.244 111.944 139.014 109.52 137.402C109.035 137.078 106.957 136.214 105.475 136.81C103.56 137.581 102.791 139.497 103.482 142.258C104.319 145.598 104.781 145.31 106.01 149.099C106.813 151.571 107.597 153.985 108.485 156.034C108.485 156.034 113.141 151.417 120.001 151.224Z" fill="#0788A5"/>
<path fill-rule="evenodd" clip-rule="evenodd" d="M45.2242 150.224C47.3592 143.244 53.2815 138.014 55.7051 136.402C56.1905 136.078 58.2691 135.214 59.7502 135.81C61.6653 136.581 62.4343 138.497 61.7431 141.258C60.9064 144.598 60.4449 144.31 59.2153 148.099C58.4123 150.571 57.6289 152.985 56.7406 155.034C56.7406 155.034 52.0847 150.417 45.2242 150.224Z" fill="#0788A5"/>
<path d="M120.002 151.224C121.214 155.187 120.856 158.926 117.289 160.911C112.941 163.329 110.456 160.583 108.485 156.034C108.485 156.034 113.141 151.417 120.002 151.224Z" fill="#292929"/>
<path d="M45.2239 150.224C44.0117 154.187 44.3691 157.926 47.9366 159.911C52.2841 162.329 54.7693 159.583 56.7403 155.034C56.7403 155.034 52.0843 150.417 45.2239 150.224Z" fill="#292929"/>
<path d="M82.4424 122.208C84.3267 122.208 86.089 122.391 87.7369 122.734C87.7369 122.734 100.881 145.083 102.159 157.995C103.1 167.502 91.8981 171.545 82.4424 171.46C72.9867 171.375 62.0115 167.201 63.0925 157.995C64.3704 147.112 78.0617 122.585 78.0617 122.585C79.4432 122.338 80.902 122.208 82.4424 122.208Z" fill="#E2E2E2"/>
<path d="M73.5472 179.181C72.0313 181.602 69.2518 184 64.1881 184C60.7117 184 58.3894 182.032 56.8428 179.181C65.0984 176.806 73.5472 179.181 73.5472 179.181Z" fill="#292929"/>
<path fill-rule="evenodd" clip-rule="evenodd" d="M110.556 169.8C110.153 173.555 109.351 176.767 107.985 179.181C101.333 177.554 94.7398 178.676 92.4305 179.069C91.8929 179.16 91.5875 179.212 91.5675 179.181C90.0274 176.714 89.5624 174.224 89.5624 174.224C84.451 174.964 75.3234 174.224 75.3234 174.224C75.3234 174.224 75.0909 176.714 73.5464 179.181C73.5464 179.181 65.0976 176.806 56.842 179.181C55.5088 176.723 54.7522 173.609 54.3296 170.535C53.4678 164.265 54.7209 126.758 78.0617 122.585C78.0617 122.585 64.3704 147.112 63.0925 157.995C62.0115 167.201 72.9867 171.375 82.4424 171.46C91.8981 171.545 103.1 167.502 102.159 157.995C100.881 145.083 87.7369 122.734 87.7369 122.734C101.698 125.641 107.448 140.063 109.597 152.461C110.905 160.009 110.878 166.807 110.556 169.8Z" fill="#1CA1BF"/>
<path d="M99.7857 184C95.6267 184 93.0798 181.602 91.5684 179.181C91.5884 179.212 91.8938 179.16 92.4314 179.069C94.7407 178.676 101.333 177.554 107.985 179.181C106.262 182.224 103.641 184 99.7857 184Z" fill="#292929"/>
<path fill-rule="evenodd" clip-rule="evenodd" d="M82.0754 141.41C115.665 141.41 143.413 116.515 143.413 116.515L139.396 113.932L146.333 110.427C146.333 110.427 137.571 95.8557 127.348 79.9927C125.791 77.5761 123.882 75.0044 121.677 72.4305C117.985 68.1225 113.462 63.8087 108.363 60.2068C100.928 54.9558 91.3546 51.2195 82.2579 51.2195C73.1612 51.2195 63.4053 54.9886 55.9706 60.2396C50.8709 63.8415 46.348 68.1553 42.6566 72.4633C40.4512 75.0371 38.5427 77.6089 36.9853 80.0255C26.7624 95.8885 18 110.46 18 110.46L24.9369 113.965L20.9208 116.547C20.9208 116.547 48.486 141.41 82.0754 141.41ZM107.633 118.36C118.678 121.832 132.094 114.302 135.38 110.613C135.38 110.613 126.8 105.818 120.959 96.2261C117.673 90.8308 113.839 85.3433 102.886 85.3433C91.9331 85.3433 88.2821 102.448 89.3774 102.866C97.5922 106.002 98.1399 115.377 107.633 118.36ZM56.7008 118.393C45.655 121.865 32.239 114.335 28.9531 110.646C28.9531 110.646 37.533 105.85 43.3746 96.2589C46.6605 90.8636 50.4941 85.3761 61.4471 85.3761C72.4002 85.3761 76.0512 102.481 74.9559 102.899C66.7411 106.035 66.1935 115.409 56.7008 118.393Z" fill="#1CA1BF"/>
<path d="M41.1835 44.4278C29.0381 48.301 30.7781 70.9873 36.9848 80.0255C38.5422 77.6089 40.4507 75.0371 42.6561 72.4633C42.6561 72.4633 35.3418 58.0771 42.6561 52.9124C47.3314 49.6111 55.9701 60.2396 55.9701 60.2396C58.4614 58.4801 61.2132 56.8869 64.1136 55.5463C60.28 49.7191 48.1204 42.2155 41.1835 44.4278Z" fill="#E2E2E2"/>
<path d="M127.348 79.9927C133.555 70.9545 135.295 48.2683 123.149 44.395C116.212 42.1827 104.164 49.7246 100.33 55.5517C103.18 56.8814 105.89 58.4603 108.363 60.2068C108.363 60.2068 117.001 49.5783 121.677 52.8796C128.991 58.0443 121.677 72.4305 121.677 72.4305C123.882 75.0044 125.791 77.5761 127.348 79.9927Z" fill="#E2E2E2"/>
<path d="M55.971 60.2396C55.971 60.2396 47.3324 49.6111 42.6571 52.9124C35.3428 58.0771 42.6571 72.4633 42.6571 72.4633C46.3485 68.1553 50.8713 63.8415 55.971 60.2396Z" fill="#292929"/>
<path d="M121.677 52.8796C117.001 49.5783 108.363 60.2068 108.363 60.2068C113.462 63.8087 117.985 68.1225 121.677 72.4305C121.677 72.4305 128.991 58.0443 121.677 52.8796Z" fill="#292929"/>
<path d="M28.9531 110.646C32.239 114.335 45.655 121.865 56.7008 118.393C66.1935 115.409 66.7411 106.035 74.9559 102.899C76.0512 102.481 72.4002 85.3761 61.4471 85.3761C50.4941 85.3761 46.6605 90.8636 43.3746 96.2589C37.533 105.85 28.9531 110.646 28.9531 110.646Z" fill="#292929"/>
<path d="M135.38 110.613C132.094 114.303 118.678 121.832 107.633 118.36C98.1397 115.377 97.592 106.002 89.3772 102.866C88.2819 102.448 91.9329 85.3433 102.886 85.3433C113.839 85.3433 117.673 90.8308 120.959 96.2261C126.8 105.818 135.38 110.613 135.38 110.613Z" fill="#292929"/>
<path d="M82.2584 116.668C87.2994 116.668 91.386 114.025 91.386 110.765C91.386 107.505 87.2994 104.863 82.2584 104.863C77.2174 104.863 73.1309 107.505 73.1309 110.765C73.1309 114.025 77.2174 116.668 82.2584 116.668Z" fill="#292929"/>
<path d="M72.2681 117.405C72.2681 116.773 71.7551 116.26 71.1223 116.26C70.4896 116.26 69.9766 116.773 69.9766 117.405H72.2681ZM81.1122 115.745C81.1122 119.257 78.8276 120.971 76.5863 121.176C75.4415 121.28 74.3519 120.984 73.5708 120.37C72.8171 119.777 72.2681 118.825 72.2681 117.405H69.9766C69.9767 119.491 70.8197 121.121 72.1539 122.171C73.4608 123.199 75.155 123.607 76.7942 123.458C80.1206 123.154 83.4037 120.535 83.4037 115.745H81.1122Z" fill="#292929"/>
<path d="M92.2479 117.221C92.2479 116.588 92.7609 116.075 93.3937 116.075C94.0264 116.075 94.5394 116.588 94.5394 117.221L92.2479 117.221ZM83.4038 115.561C83.4038 119.072 85.6884 120.787 87.9298 120.991C89.0745 121.095 90.1641 120.8 90.9452 120.186C91.6989 119.593 92.2479 118.64 92.2479 117.221L94.5394 117.221C94.5394 119.306 93.6963 120.937 92.3621 121.986C91.0553 123.015 89.361 123.423 87.7219 123.273C84.3955 122.97 81.1123 120.35 81.1123 115.561H83.4038Z" fill="#292929"/>
<path d="M103.108 92.339H102.33C99.3233 92.339 96.8857 94.7766 96.8857 97.7835V100.895C96.8857 103.901 99.3233 106.339 102.33 106.339H103.108C106.115 106.339 108.552 103.901 108.552 100.895V97.7835C108.552 94.7766 106.115 92.339 103.108 92.339Z" fill="#E2E2E2"/>
<path d="M60.7016 92.3073H61.4794C64.4863 92.3073 66.9238 94.7449 66.9238 97.7517V100.863C66.9238 103.87 64.4863 106.307 61.4794 106.307H60.7016C57.6947 106.307 55.2571 103.87 55.2571 100.863V97.7517C55.2571 94.7449 57.6947 92.3073 60.7016 92.3073Z" fill="#E2E2E2"/>
<path d="M106 97.5C106 95.567 104.433 94 102.5 94C100.567 94 99 95.567 99 97.5V100.611C99 102.544 100.567 104.111 102.5 104.111C104.433 104.111 106 102.544 106 100.611V97.5Z" fill="black"/>
<path d="M58 97.5C58 95.567 59.567 94 61.5 94C63.433 94 65 95.567 65 97.5V100.611C65 102.544 63.433 104.111 61.5 104.111C59.567 104.111 58 102.544 58 100.611V97.5Z" fill="black"/>
<path d="M109.397 89.5H99.2689C98.1997 89.5 97.333 90.3667 97.333 91.4359V91.453C97.333 92.5222 98.1997 93.3889 99.2689 93.3889H109.397C110.466 93.3889 111.333 92.5222 111.333 91.453V91.4359C111.333 90.3667 110.466 89.5 109.397 89.5Z" fill="black"/>
<path d="M54.596 89.3687H64.7243C65.7934 89.3687 66.6602 90.2354 66.6602 91.3046V91.3217C66.6602 92.3909 65.7934 93.2576 64.7243 93.2576H54.596C53.5269 93.2576 52.6602 92.3909 52.6602 91.3217V91.3046C52.6602 90.2354 53.5269 89.3687 54.596 89.3687Z" fill="black"/>
<rect x="57" y="198" width="49" height="28" fill="#E5E5E5"/>
<rect x="67" y="198" width="9" height="28" fill="#DCDCDC"/>
<rect x="90" y="198" width="9" height="28" fill="#DCDCDC"/>
<path fill-rule="evenodd" clip-rule="evenodd" d="M51.9713 198.576C50.324 201.157 47.4731 202.863 44.2322 202.863C39.1334 202.863 35 198.64 35 193.431C35 188.223 39.1334 184 44.2322 184C44.5716 184 44.9067 184.019 45.2365 184.055C45.4588 184.019 45.6869 184 45.9194 184H118.082C118.314 184 118.542 184.019 118.764 184.055C119.094 184.019 119.428 184 119.767 184C124.866 184 129 188.223 129 193.431C129 198.64 124.866 202.863 119.767 202.863C116.526 202.863 113.675 201.157 112.028 198.576H51.9713Z" fill="#EAEAEA"/>
<defs>
<filter id="filter0_d_1624_8655" x="0" y="212" width="164" height="36" filterUnits="userSpaceOnUse" color-interpolation-filters="sRGB">
<feFlood flood-opacity="0" result="BackgroundImageFix"/>
<feColorMatrix in="SourceAlpha" type="matrix" values="0 0 0 0 0 0 0 0 0 0 0 0 0 0 0 0 0 0 127 0" result="hardAlpha"/>
<feOffset dy="4"/>
<feGaussianBlur stdDeviation="2"/>
<feComposite in2="hardAlpha" operator="out"/>
<feColorMatrix type="matrix" values="0 0 0 0 0 0 0 0 0 0 0 0 0 0 0 0 0 0 0.15 0"/>
<feBlend mode="normal" in2="BackgroundImageFix" result="effect1_dropShadow_1624_8655"/>
<feBlend mode="normal" in="SourceGraphic" in2="effect1_dropShadow_1624_8655" result="shape"/>
</filter>
</defs>
</svg>
