<svg width="20" height="21" viewBox="0 0 20 21" fill="none" xmlns="http://www.w3.org/2000/svg">
<path d="M18.6582 8.09805C18.3557 7.78266 18.0438 7.45695 17.9415 7.21031C17.8504 6.99031 17.8435 6.53742 17.8375 6.13867C17.8246 5.2793 17.8083 4.21023 17.0486 3.45141C16.2889 2.69258 15.2207 2.67797 14.3613 2.6625C13.9626 2.65648 13.5097 2.64961 13.2897 2.55852C13.043 2.45625 12.7173 2.1443 12.402 1.8418C11.7935 1.25828 11.0355 0.53125 10 0.53125C8.96445 0.53125 8.20648 1.25828 7.59805 1.8418C7.28266 2.1443 6.95695 2.45625 6.71031 2.55852C6.49031 2.64961 6.03742 2.65648 5.63867 2.6625C4.7793 2.67969 3.71023 2.69172 2.95312 3.45312C2.19602 4.21453 2.17969 5.2793 2.1625 6.13867C2.15648 6.53742 2.14961 6.99031 2.05852 7.21031C1.95625 7.45695 1.6443 7.78266 1.3418 8.09805C0.758281 8.70648 0.03125 9.46875 0.03125 10.5C0.03125 11.5312 0.758281 12.2935 1.3418 12.9062C1.6443 13.2216 1.95625 13.5473 2.05852 13.794C2.14961 14.014 2.15648 14.4669 2.1625 14.8656C2.17539 15.725 2.19172 16.7941 2.95141 17.5529C3.71109 18.3117 4.7793 18.3263 5.63867 18.3418C6.03742 18.3478 6.49031 18.3547 6.71031 18.4458C6.95695 18.548 7.28266 18.86 7.59805 19.1625C8.20648 19.7417 8.96875 20.4688 10 20.4688C11.0312 20.4688 11.7935 19.7417 12.402 19.1582C12.7173 18.8557 13.043 18.5438 13.2897 18.4415C13.5097 18.3504 13.9626 18.3435 14.3613 18.3375C15.2207 18.3246 16.2898 18.3083 17.0486 17.5486C17.8074 16.7889 17.822 15.7207 17.8375 14.8613C17.8435 14.4626 17.8504 14.0097 17.9415 13.7897C18.0438 13.543 18.3557 13.2173 18.6582 12.902C19.2417 12.2935 19.9688 11.5355 19.9688 10.5C19.9688 9.46445 19.2417 8.70648 18.6582 8.09805ZM17.1698 11.4745C16.7555 11.9042 16.2863 12.3958 16.0363 13.0008C15.7939 13.5852 15.7845 14.2177 15.7784 14.8304C15.7716 15.291 15.7621 15.9227 15.5937 16.0902C15.4252 16.2578 14.7945 16.2681 14.3338 16.275C13.7211 16.2845 13.0886 16.2939 12.5042 16.5328C11.9027 16.7829 11.4102 17.2521 10.978 17.6663C10.6686 17.9628 10.2063 18.4062 10 18.4062C9.79375 18.4062 9.33141 17.9628 9.02547 17.6698C8.59578 17.2555 8.10422 16.7863 7.49922 16.5363C6.91484 16.2939 6.28234 16.2845 5.66961 16.2784C5.20898 16.2716 4.57734 16.2621 4.40977 16.0937C4.24219 15.9252 4.23187 15.2945 4.225 14.8338C4.21555 14.2211 4.20609 13.5886 3.96719 13.0042C3.71711 12.4027 3.24789 11.9102 2.83367 11.478C2.53719 11.1686 2.09375 10.7063 2.09375 10.5C2.09375 10.2937 2.53719 9.83141 2.83023 9.52547C3.24445 9.09578 3.71367 8.60422 3.96375 7.99922C4.20609 7.41484 4.21555 6.78234 4.22156 6.16961C4.23187 5.70898 4.24219 5.07734 4.41406 4.91406C4.58594 4.75078 5.21328 4.73617 5.67391 4.7293C6.28664 4.71984 6.91914 4.71039 7.50352 4.47148C8.10508 4.22141 8.5975 3.75219 9.02977 3.33797C9.33141 3.03719 9.79375 2.59375 10 2.59375C10.2063 2.59375 10.6686 3.03719 10.9745 3.33023C11.4042 3.74445 11.8958 4.21367 12.5008 4.46375C13.0852 4.70609 13.7177 4.71555 14.3304 4.72156C14.791 4.72844 15.4227 4.73789 15.5902 4.90633C15.7578 5.07477 15.7681 5.70555 15.775 6.16617C15.7845 6.77891 15.7939 7.41141 16.0328 7.99578C16.2829 8.59734 16.7521 9.08977 17.1663 9.52203C17.4594 9.82797 17.9028 10.2903 17.9028 10.4966C17.9028 10.7028 17.4628 11.1686 17.1698 11.4745ZM14.1671 7.70789C14.2632 7.8037 14.3395 7.91754 14.3916 8.04289C14.4436 8.16824 14.4704 8.30263 14.4704 8.43836C14.4704 8.57409 14.4436 8.70848 14.3916 8.83383C14.3395 8.95918 14.2632 9.07302 14.1671 9.16883L9.35461 13.9813C9.2588 14.0775 9.14496 14.1537 9.01961 14.2058C8.89426 14.2578 8.75987 14.2846 8.62414 14.2846C8.48841 14.2846 8.35402 14.2578 8.22867 14.2058C8.10332 14.1537 7.98948 14.0775 7.89367 13.9813L5.83117 11.9188C5.73525 11.8229 5.65915 11.709 5.60724 11.5837C5.55532 11.4584 5.5286 11.324 5.5286 11.1884C5.5286 11.0527 5.55532 10.9184 5.60724 10.793C5.65915 10.6677 5.73525 10.5538 5.83117 10.4579C5.9271 10.362 6.04098 10.2859 6.16631 10.234C6.29165 10.182 6.42598 10.1553 6.56164 10.1553C6.6973 10.1553 6.83163 10.182 6.95697 10.234C7.0823 10.2859 7.19618 10.362 7.29211 10.4579L8.625 11.7891L12.7079 7.70531C12.8038 7.6096 12.9177 7.53374 13.043 7.48206C13.1683 7.43038 13.3025 7.40391 13.438 7.40415C13.5736 7.40439 13.7077 7.43134 13.8328 7.48346C13.9579 7.53557 14.0715 7.61184 14.1671 7.70789Z" fill="#1CA1BF"/>
</svg>
