<svg width="18" height="18" viewBox="0 0 18 18" fill="none" xmlns="http://www.w3.org/2000/svg">
<path d="M15.875 0.09375H2.125C1.66916 0.09375 1.23199 0.274832 0.90966 0.59716C0.587332 0.919488 0.40625 1.35666 0.40625 1.8125V6.86562C0.40625 14.8028 7.11797 17.4359 8.46375 17.8811C8.8117 17.9979 9.1883 17.9979 9.53625 17.8811C10.882 17.4342 17.5938 14.8028 17.5938 6.86562V1.8125C17.5938 1.35666 17.4127 0.919488 17.0903 0.59716C16.768 0.274832 16.3308 0.09375 15.875 0.09375ZM2.46875 2.15625H15.5312V6.86562C15.542 8.0115 15.35 9.15024 14.9641 10.2292L9.59125 6.46773C9.41794 6.34646 9.21153 6.28141 9 6.28141C8.78847 6.28141 8.58206 6.34646 8.40875 6.46773L3.03594 10.2292C2.65002 9.15024 2.458 8.0115 2.46875 6.86562V2.15625ZM9 15.8848C8.13461 15.5814 5.62609 14.5278 3.98211 12.0846L9 8.57148L14.0179 12.0846C12.3739 14.5312 9.86539 15.5814 9 15.8848Z" fill="#1CA1BF"/>
</svg>
