<svg width="20" height="21" viewBox="0 0 20 21" fill="none" xmlns="http://www.w3.org/2000/svg">
<path d="M18.8391 8.88876L13.5385 6.96118L11.6109 1.66055C11.4907 1.32975 11.2716 1.04397 10.9833 0.842019C10.695 0.640069 10.3516 0.531738 9.9996 0.531738C9.64762 0.531738 9.30418 0.640069 9.0159 0.842019C8.72763 1.04397 8.5085 1.32975 8.38827 1.66055L6.46069 6.96118L1.16007 8.88876C0.829263 9.00899 0.543481 9.22812 0.341531 9.51639C0.139581 9.80467 0.03125 10.1481 0.03125 10.5001C0.03125 10.8521 0.139581 11.1955 0.341531 11.4838C0.543481 11.7721 0.829263 11.9912 1.16007 12.1114L6.46069 14.039L8.38827 19.3396C8.5085 19.6704 8.72763 19.9562 9.0159 20.1582C9.30418 20.3601 9.64762 20.4684 9.9996 20.4684C10.3516 20.4684 10.695 20.3601 10.9833 20.1582C11.2716 19.9562 11.4907 19.6704 11.6109 19.3396L13.5385 14.039L18.8391 12.1114C19.1699 11.9912 19.4557 11.7721 19.6577 11.4838C19.8596 11.1955 19.9679 10.8521 19.9679 10.5001C19.9679 10.1481 19.8596 9.80467 19.6577 9.51639C19.4557 9.22812 19.1699 9.00899 18.8391 8.88876ZM12.6817 12.1544C12.446 12.2398 12.2319 12.376 12.0546 12.5533C11.8772 12.7306 11.7411 12.9447 11.6556 13.1805L9.9996 17.7352L8.34358 13.1805C8.25814 12.9447 8.12194 12.7306 7.94464 12.5533C7.76733 12.376 7.55323 12.2398 7.31749 12.1544L2.7628 10.5001L7.31749 8.84407C7.55323 8.75863 7.76733 8.62243 7.94464 8.44512C8.12194 8.26782 8.25814 8.05372 8.34358 7.81798L9.9996 3.26329L11.6556 7.81798C11.7411 8.05372 11.8772 8.26782 12.0546 8.44512C12.2319 8.62243 12.446 8.75863 12.6817 8.84407L17.2364 10.5001L12.6817 12.1544Z" fill="#1CA1BF"/>
</svg>
